#N canvas 692 335 224 146 10;
#X obj -1 -68 noise~;
#X obj -1 28 output~;
#X obj -1 0 -~ 0.2;
#X obj -1 -21 max~ 0.2;
#X obj -1 -42 bp~ 2000 2;
#X connect 0 0 4 0;
#X connect 2 0 1 0;
#X connect 2 0 1 1;
#X connect 3 0 2 0;
#X connect 4 0 3 0;
