#N canvas 521 51 512 191 10;
#X obj 9 -28 noise~;
#X obj 81 129 throw~ out;
#X obj -7 102 throw~ out;
#X obj 166 -25 catch~ out;
#X obj 166 75 output~;
#X obj 81 80 -~ 0.7;
#X obj 81 38 bp~ 500 0.8;
#X obj 81 59 max~ 0.7;
#X obj -7 80 -~ 0.2;
#X obj 166 -5 hip~ 2200;
#X obj -7 59 max~ 0.2;
#X obj 260 76 writesf~;
#X msg 340 -5 start;
#X msg 340 23 stop;
#X msg 340 51 open -bytes 2 pdbacon.wav;
#X obj -7 38 bp~ 2000 2;
#X obj 81 107 *~ 12;
#X connect 0 0 6 0;
#X connect 0 0 15 0;
#X connect 3 0 9 0;
#X connect 5 0 16 0;
#X connect 6 0 7 0;
#X connect 7 0 5 0;
#X connect 8 0 2 0;
#X connect 9 0 4 0;
#X connect 9 0 4 1;
#X connect 9 0 11 0;
#X connect 10 0 8 0;
#X connect 12 0 11 0;
#X connect 13 0 11 0;
#X connect 14 0 11 0;
#X connect 15 0 10 0;
#X connect 16 0 1 0;
