#N canvas 521 51 414 314 10;
#X obj -1 -68 noise~;
#X obj -1 22 throw~ out;
#X obj 82 -66 catch~ out;
#X obj 82 -1 output~;
#X obj -1 0 -~ 0.2;
#X obj -1 -21 max~ 0.2;
#X obj -1 -42 bp~ 2000 2;
#X obj 82 -46 hip~ 1800;
#X obj 53 103 grapher~;
#X obj 154 103 grapher~;
#X obj 255 103 grapher~;
#X text 51 205 Noise;
#X text 155 204 Filtered;
#X text 255 203 Max +0.2;
#X connect 0 0 6 0;
#X connect 0 0 8 0;
#X connect 2 0 7 0;
#X connect 4 0 1 0;
#X connect 4 0 10 0;
#X connect 5 0 4 0;
#X connect 6 0 5 0;
#X connect 6 0 9 0;
#X connect 7 0 3 0;
#X connect 7 0 3 1;
