#N canvas 684 115 254 184 10;
#X obj 9 -28 noise~;
#X obj 81 129 throw~ out;
#X obj -7 102 throw~ out;
#X obj 166 -25 catch~ out;
#X obj 166 25 output~;
#X obj 81 80 -~ 0.7;
#X obj 81 38 bp~ 500 0.8;
#X obj 81 59 max~ 0.7;
#X obj -7 80 -~ 0.2;
#X obj 81 107 *~ 12;
#X obj 166 -5 hip~ 2200;
#X obj -7 59 max~ 0.2;
#X obj -7 38 bp~ 20 0.012;
#X connect 0 0 6 0;
#X connect 0 0 12 0;
#X connect 3 0 10 0;
#X connect 5 0 9 0;
#X connect 6 0 7 0;
#X connect 7 0 5 0;
#X connect 8 0 2 0;
#X connect 9 0 1 0;
#X connect 10 0 4 0;
#X connect 10 0 4 1;
#X connect 11 0 8 0;
#X connect 12 0 11 0;
